<?xml version="1.0" standalone="no"?>
<!DOCTYPE svg PUBLIC "-//W3C//DTD SVG 20010904//EN"
 "http://www.w3.org/TR/2001/REC-SVG-20010904/DTD/svg10.dtd">
<svg version="1.0" xmlns="http://www.w3.org/2000/svg"
 width="500.000000pt" height="500.000000pt" viewBox="0 0 500.000000 500.000000"
 preserveAspectRatio="xMidYMid meet">
<metadata>
Created by potrace 1.14, written by Peter Selinger 2001-2017
</metadata>
<g transform="translate(0.000000,500.000000) scale(0.100000,-0.100000)"
fill="#000000" stroke="none">
<path d="M2380 4733 c-413 -36 -726 -153 -1055 -397 -162 -120 -275 -229 -379
-366 -217 -286 -333 -600 -373 -1010 -14 -139 -8 -375 13 -505 15 -95 76 -266
132 -375 100 -192 147 -266 216 -338 28 -29 52 -58 54 -63 2 -5 10 -9 17 -9 7
0 15 -4 17 -8 5 -14 130 -95 202 -132 l69 -35 2 -265 c1 -146 5 -278 9 -295
20 -88 40 -134 87 -206 58 -86 195 -219 227 -219 6 0 12 -3 14 -8 4 -10 144
-92 156 -92 6 0 12 -3 14 -8 4 -10 210 -110 293 -142 11 -4 31 -12 45 -19 24
-10 133 -38 195 -48 41 -7 189 -7 250 1 28 3 82 16 120 28 39 12 76 23 84 24
8 1 17 8 21 14 4 7 9 11 11 9 8 -4 54 13 127 47 190 89 227 108 233 117 3 5 9
8 13 7 14 -4 146 85 146 98 0 6 5 12 10 12 15 0 78 68 121 130 94 138 117 256
120 628 l1 143 60 32 c103 55 110 59 142 86 17 14 67 61 110 103 44 43 83 78
87 78 4 0 9 3 11 8 1 4 15 17 30 28 63 49 178 233 178 284 0 10 7 23 16 31 8
7 13 21 11 31 -3 10 -2 18 2 18 6 0 28 70 37 115 1 6 6 28 12 50 17 62 40 185
47 240 3 28 8 66 11 85 6 31 13 225 15 400 0 66 -6 135 -16 180 -4 14 -8 37
-11 51 -7 36 -68 224 -89 274 -22 50 -32 78 -34 88 -4 30 -139 269 -176 311
-14 16 -25 32 -25 35 0 3 -10 18 -23 33 -12 15 -40 49 -62 77 -22 27 -50 55
-62 61 -11 7 -29 32 -38 56 -11 29 -34 58 -68 87 -61 50 -135 101 -159 110
-10 3 -20 19 -24 34 -10 41 -41 81 -77 100 -18 8 -34 19 -37 22 -11 13 -110
55 -180 76 -92 28 -314 70 -420 80 -36 3 -78 8 -95 11 -39 5 -339 11 -385 7z"/>
</g>
</svg>
